<svg width="716" height="478" viewBox="0 0 716 478" fill="none" xmlns="http://www.w3.org/2000/svg">
<path d="M678.504 129.383C707.587 219.335 589.607 338.023 414.988 394.479C240.37 450.935 75.2374 423.781 46.1546 333.829C17.0718 243.876 135.052 125.189 309.67 68.7322C484.289 12.2759 649.421 39.43 678.504 129.383Z" fill="#135B44"/>
<path fill-rule="evenodd" clip-rule="evenodd" d="M89.1181 82.9808C83.3901 82.9808 78.76 78.3442 78.76 72.6082C78.76 66.92 83.3901 62.2834 89.1181 62.2834C94.7984 62.2834 99.4285 66.92 99.4285 72.6082C99.4285 78.3442 94.7984 82.9808 89.1181 82.9808ZM89.1181 65.1514C84.9653 65.1514 81.624 68.4974 81.624 72.6082C81.624 76.7668 84.9653 80.1128 89.1181 80.1128C93.2232 80.1128 96.5645 76.7668 96.5645 72.6082C96.5645 68.4974 93.2232 65.1514 89.1181 65.1514Z" fill="#8BF6F1"/>
<path fill-rule="evenodd" clip-rule="evenodd" d="M126.207 146.746C120.479 146.746 115.849 142.109 115.849 136.373C115.849 130.685 120.479 126.049 126.207 126.049C131.887 126.049 136.517 130.685 136.517 136.373C136.517 142.109 131.887 146.746 126.207 146.746ZM126.207 128.917C122.054 128.917 118.713 132.263 118.713 136.373C118.713 140.532 122.054 143.878 126.207 143.878C130.312 143.878 133.653 140.532 133.653 136.373C133.653 132.263 130.312 128.917 126.207 128.917Z" fill="#8BF6F1"/>
<path fill-rule="evenodd" clip-rule="evenodd" d="M111.266 105.782C110.216 105.782 109.405 104.921 109.405 103.917C109.405 102.866 110.216 102.053 111.266 102.053C112.269 102.053 113.08 102.866 113.08 103.917C113.08 104.921 112.269 105.782 111.266 105.782ZM111.266 103.009C110.741 103.009 110.359 103.391 110.359 103.917C110.359 104.395 110.741 104.826 111.266 104.826C111.744 104.826 112.126 104.395 112.126 103.917C112.126 103.391 111.744 103.009 111.266 103.009Z" fill="#8BF6F1"/>
<path fill-rule="evenodd" clip-rule="evenodd" d="M71.6955 128.821C70.6931 128.821 69.8339 128.008 69.8339 126.957C69.8339 125.953 70.6931 125.093 71.6955 125.093C72.7456 125.093 73.5571 125.953 73.5571 126.957C73.5571 128.008 72.7456 128.821 71.6955 128.821ZM71.6955 126.049C71.2181 126.049 70.7885 126.479 70.7885 126.957C70.7885 127.483 71.2181 127.865 71.6955 127.865C72.2205 127.865 72.6024 127.483 72.6024 126.957C72.6024 126.479 72.2205 126.049 71.6955 126.049Z" fill="#8BF6F1"/>
<path fill-rule="evenodd" clip-rule="evenodd" d="M153.701 127.435C152.699 127.435 151.84 126.622 151.84 125.571C151.84 124.567 152.699 123.754 153.701 123.754C154.751 123.754 155.563 124.567 155.563 125.571C155.563 126.622 154.751 127.435 153.701 127.435ZM153.701 124.71C153.224 124.71 152.794 125.093 152.794 125.571C152.794 126.096 153.224 126.479 153.701 126.479C154.226 126.479 154.608 126.096 154.608 125.571C154.608 125.093 154.226 124.71 153.701 124.71Z" fill="#8BF6F1"/>
<path fill-rule="evenodd" clip-rule="evenodd" d="M196.184 110.609C195.134 110.609 194.322 109.749 194.322 108.745C194.322 107.741 195.134 106.881 196.184 106.881C197.186 106.881 197.998 107.741 197.998 108.745C197.998 109.749 197.186 110.609 196.184 110.609ZM196.184 107.837C195.659 107.837 195.277 108.267 195.277 108.745C195.277 109.223 195.659 109.653 196.184 109.653C196.661 109.653 197.043 109.223 197.043 108.745C197.043 108.267 196.661 107.837 196.184 107.837Z" fill="#8BF6F1"/>
<path fill-rule="evenodd" clip-rule="evenodd" d="M180.766 139.624C179.716 139.624 178.905 138.811 178.905 137.76C178.905 136.756 179.716 135.895 180.766 135.895C181.769 135.895 182.628 136.756 182.628 137.76C182.628 138.811 181.769 139.624 180.766 139.624ZM180.766 136.851C180.241 136.851 179.859 137.282 179.859 137.76C179.859 138.285 180.241 138.668 180.766 138.668C181.243 138.668 181.673 138.285 181.673 137.76C181.673 137.282 181.243 136.851 180.766 136.851Z" fill="#8BF6F1"/>
<path fill-rule="evenodd" clip-rule="evenodd" d="M74.464 122.798C72.6979 122.798 71.2181 121.364 71.2181 119.596C71.2181 117.779 72.6979 116.345 74.464 116.345C76.2301 116.345 77.7099 117.779 77.7099 119.596C77.7099 121.364 76.2301 122.798 74.464 122.798ZM74.464 117.301C73.2229 117.301 72.1728 118.305 72.1728 119.596C72.1728 120.838 73.2229 121.842 74.464 121.842C75.7051 121.842 76.7552 120.838 76.7552 119.596C76.7552 118.305 75.7051 117.301 74.464 117.301Z" fill="#8BF6F1"/>
<path fill-rule="evenodd" clip-rule="evenodd" d="M103.199 151.191C101.386 151.191 99.9536 149.71 99.9536 147.941C99.9536 146.172 101.386 144.691 103.199 144.691C104.966 144.691 106.445 146.172 106.445 147.941C106.445 149.71 104.966 151.191 103.199 151.191ZM103.199 145.647C101.911 145.647 100.908 146.698 100.908 147.941C100.908 149.184 101.911 150.235 103.199 150.235C104.441 150.235 105.491 149.184 105.491 147.941C105.491 146.698 104.441 145.647 103.199 145.647Z" fill="#8BF6F1"/>
<path fill-rule="evenodd" clip-rule="evenodd" d="M146.78 82.0249C145.014 82.0249 143.582 80.5909 143.582 78.7745C143.582 77.0059 145.014 75.5719 146.78 75.5719C148.594 75.5719 150.026 77.0059 150.026 78.7745C150.026 80.5909 148.594 82.0249 146.78 82.0249ZM146.78 76.5279C145.539 76.5279 144.537 77.5317 144.537 78.7745C144.537 80.0651 145.539 81.0689 146.78 81.0689C148.069 81.0689 149.071 80.0651 149.071 78.7745C149.071 77.5317 148.069 76.5279 146.78 76.5279Z" fill="#8BF6F1"/>
<path fill-rule="evenodd" clip-rule="evenodd" d="M188.642 127.148C186.876 127.148 185.396 125.714 185.396 123.898C185.396 122.129 186.876 120.695 188.642 120.695C190.408 120.695 191.888 122.129 191.888 123.898C191.888 125.714 190.408 127.148 188.642 127.148ZM188.642 121.651C187.401 121.651 186.351 122.655 186.351 123.898C186.351 125.188 187.401 126.192 188.642 126.192C189.883 126.192 190.933 125.188 190.933 123.898C190.933 122.655 189.883 121.651 188.642 121.651Z" fill="#8BF6F1"/>
<path fill-rule="evenodd" clip-rule="evenodd" d="M200.289 89.9597C198.523 89.9597 197.043 88.4779 197.043 86.7093C197.043 84.9407 198.523 83.4589 200.289 83.4589C202.055 83.4589 203.535 84.9407 203.535 86.7093C203.535 88.4779 202.055 89.9597 200.289 89.9597ZM200.289 84.4149C199.048 84.4149 197.998 85.4665 197.998 86.7093C197.998 87.9521 199.048 89.0037 200.289 89.0037C201.53 89.0037 202.58 87.9521 202.58 86.7093C202.58 85.4665 201.53 84.4149 200.289 84.4149Z" fill="#8BF6F1"/>
<path fill-rule="evenodd" clip-rule="evenodd" d="M112.985 88.5256C111.219 88.5256 109.787 87.0916 109.787 85.2752C109.787 83.5066 111.219 82.0726 112.985 82.0726C114.799 82.0726 116.231 83.5066 116.231 85.2752C116.231 87.0916 114.799 88.5256 112.985 88.5256ZM112.985 83.0286C111.744 83.0286 110.741 84.0324 110.741 85.2752C110.741 86.5658 111.744 87.5696 112.985 87.5696C114.274 87.5696 115.276 86.5658 115.276 85.2752C115.276 84.0324 114.274 83.0286 112.985 83.0286Z" fill="#8BF6F1"/>
<path fill-rule="evenodd" clip-rule="evenodd" d="M167.258 111.565C161.53 111.565 156.899 106.929 156.899 101.193C156.899 95.5044 161.53 90.8678 167.258 90.8678C172.938 90.8678 177.568 95.5044 177.568 101.193C177.568 106.929 172.938 111.565 167.258 111.565ZM167.258 93.7358C163.105 93.7358 159.763 97.0818 159.763 101.193C159.763 105.351 163.105 108.697 167.258 108.697C171.363 108.697 174.704 105.351 174.704 101.193C174.704 97.0818 171.363 93.7358 167.258 93.7358Z" fill="#8BF6F1"/>
<path d="M127.639 145.312V425.229H124.775V268.493H107.4V397.409H104.536V265.625H124.775V145.312H127.639Z" fill="url(#paint0_linear_0_1)"/>
<path d="M90.5501 81.5469V290.242H87.6861V146.603H71.7432V255.3H68.8792V143.735H87.6861V81.5469H90.5501Z" fill="url(#paint1_linear_0_1)"/>
<path d="M191.22 158.17V275.902H188.356V161.038H168.69V394.493H165.826V110.131H168.69V158.17H191.22Z" fill="url(#paint2_linear_0_1)"/>
<path fill-rule="evenodd" clip-rule="evenodd" d="M616.571 72.6082C616.571 66.92 621.202 62.2834 626.882 62.2834C632.61 62.2834 637.24 66.92 637.24 72.6082C637.24 78.3442 632.61 82.9808 626.882 82.9808C621.202 82.9808 616.571 78.3442 616.571 72.6082ZM619.435 72.6082C619.435 76.7668 622.777 80.1128 626.882 80.1128C631.035 80.1128 634.376 76.7668 634.376 72.6082C634.376 68.4974 631.035 65.1514 626.882 65.1514C622.777 65.1514 619.435 68.4974 619.435 72.6082Z" fill="#8BF6F1"/>
<path fill-rule="evenodd" clip-rule="evenodd" d="M579.483 136.373C579.483 130.685 584.113 126.049 589.793 126.049C595.521 126.049 600.151 130.685 600.151 136.373C600.151 142.109 595.521 146.746 589.793 146.746C584.113 146.746 579.483 142.109 579.483 136.373ZM582.347 136.373C582.347 140.532 585.688 143.878 589.793 143.878C593.946 143.878 597.287 140.532 597.287 136.373C597.287 132.263 593.946 128.917 589.793 128.917C585.688 128.917 582.347 132.263 582.347 136.373Z" fill="#8BF6F1"/>
<path fill-rule="evenodd" clip-rule="evenodd" d="M602.92 103.917C602.92 102.866 603.731 102.053 604.734 102.053C605.784 102.053 606.595 102.866 606.595 103.917C606.595 104.921 605.784 105.782 604.734 105.782C603.731 105.782 602.92 104.921 602.92 103.917ZM603.874 103.917C603.874 104.395 604.256 104.826 604.734 104.826C605.259 104.826 605.641 104.395 605.641 103.917C605.641 103.391 605.259 103.009 604.734 103.009C604.256 103.009 603.874 103.391 603.874 103.917Z" fill="#8BF6F1"/>
<path fill-rule="evenodd" clip-rule="evenodd" d="M642.443 126.957C642.443 125.953 643.254 125.093 644.305 125.093C645.307 125.093 646.166 125.953 646.166 126.957C646.166 128.008 645.307 128.821 644.305 128.821C643.254 128.821 642.443 128.008 642.443 126.957ZM643.398 126.957C643.398 127.483 643.78 127.865 644.305 127.865C644.782 127.865 645.211 127.483 645.211 126.957C645.211 126.479 644.782 126.049 644.305 126.049C643.78 126.049 643.398 126.479 643.398 126.957Z" fill="#8BF6F1"/>
<path fill-rule="evenodd" clip-rule="evenodd" d="M560.437 125.571C560.437 124.567 561.248 123.754 562.299 123.754C563.301 123.754 564.16 124.567 564.16 125.571C564.16 126.622 563.301 127.435 562.299 127.435C561.248 127.435 560.437 126.622 560.437 125.571ZM561.392 125.571C561.392 126.096 561.774 126.479 562.299 126.479C562.776 126.479 563.206 126.096 563.206 125.571C563.206 125.093 562.776 124.71 562.299 124.71C561.774 124.71 561.392 125.093 561.392 125.571Z" fill="#8BF6F1"/>
<path fill-rule="evenodd" clip-rule="evenodd" d="M518.002 108.745C518.002 107.741 518.814 106.881 519.816 106.881C520.866 106.881 521.678 107.741 521.678 108.745C521.678 109.749 520.866 110.609 519.816 110.609C518.814 110.609 518.002 109.749 518.002 108.745ZM518.957 108.745C518.957 109.223 519.339 109.653 519.816 109.653C520.341 109.653 520.723 109.223 520.723 108.745C520.723 108.267 520.341 107.837 519.816 107.837C519.339 107.837 518.957 108.267 518.957 108.745Z" fill="#8BF6F1"/>
<path fill-rule="evenodd" clip-rule="evenodd" d="M533.372 137.76C533.372 136.756 534.232 135.895 535.234 135.895C536.284 135.895 537.095 136.756 537.095 137.76C537.095 138.811 536.284 139.624 535.234 139.624C534.232 139.624 533.372 138.811 533.372 137.76ZM534.327 137.76C534.327 138.285 534.757 138.668 535.234 138.668C535.759 138.668 536.141 138.285 536.141 137.76C536.141 137.282 535.759 136.851 535.234 136.851C534.757 136.851 534.327 137.282 534.327 137.76Z" fill="#8BF6F1"/>
<path fill-rule="evenodd" clip-rule="evenodd" d="M638.29 119.596C638.29 117.779 639.77 116.345 641.536 116.345C643.302 116.345 644.782 117.779 644.782 119.596C644.782 121.364 643.302 122.798 641.536 122.798C639.77 122.798 638.29 121.364 638.29 119.596ZM639.245 119.596C639.245 120.838 640.295 121.842 641.536 121.842C642.777 121.842 643.827 120.838 643.827 119.596C643.827 118.305 642.777 117.301 641.536 117.301C640.295 117.301 639.245 118.305 639.245 119.596Z" fill="#8BF6F1"/>
<path fill-rule="evenodd" clip-rule="evenodd" d="M609.555 147.941C609.555 146.172 611.034 144.691 612.801 144.691C614.614 144.691 616.046 146.172 616.046 147.941C616.046 149.71 614.614 151.191 612.801 151.191C611.034 151.191 609.555 149.71 609.555 147.941ZM610.509 147.941C610.509 149.184 611.56 150.235 612.801 150.235C614.089 150.235 615.092 149.184 615.092 147.941C615.092 146.698 614.089 145.647 612.801 145.647C611.56 145.647 610.509 146.698 610.509 147.941Z" fill="#8BF6F1"/>
<path fill-rule="evenodd" clip-rule="evenodd" d="M565.974 78.7745C565.974 77.0059 567.406 75.5719 569.22 75.5719C570.986 75.5719 572.418 77.0059 572.418 78.7745C572.418 80.5909 570.986 82.0249 569.22 82.0249C567.406 82.0249 565.974 80.5909 565.974 78.7745ZM566.929 78.7745C566.929 80.0651 567.931 81.0689 569.22 81.0689C570.461 81.0689 571.463 80.0651 571.463 78.7745C571.463 77.5317 570.461 76.5279 569.22 76.5279C567.931 76.5279 566.929 77.5317 566.929 78.7745Z" fill="#8BF6F1"/>
<path fill-rule="evenodd" clip-rule="evenodd" d="M524.112 123.898C524.112 122.129 525.592 120.695 527.358 120.695C529.124 120.695 530.604 122.129 530.604 123.898C530.604 125.714 529.124 127.148 527.358 127.148C525.592 127.148 524.112 125.714 524.112 123.898ZM525.067 123.898C525.067 125.188 526.117 126.192 527.358 126.192C528.599 126.192 529.649 125.188 529.649 123.898C529.649 122.655 528.599 121.651 527.358 121.651C526.117 121.651 525.067 122.655 525.067 123.898Z" fill="#8BF6F1"/>
<path fill-rule="evenodd" clip-rule="evenodd" d="M512.465 86.7093C512.465 84.9407 513.945 83.4589 515.711 83.4589C517.477 83.4589 518.957 84.9407 518.957 86.7093C518.957 88.4779 517.477 89.9597 515.711 89.9597C513.945 89.9597 512.465 88.4779 512.465 86.7093ZM513.42 86.7093C513.42 87.9521 514.47 89.0037 515.711 89.0037C516.952 89.0037 518.002 87.9521 518.002 86.7093C518.002 85.4665 516.952 84.4149 515.711 84.4149C514.47 84.4149 513.42 85.4665 513.42 86.7093Z" fill="#8BF6F1"/>
<path fill-rule="evenodd" clip-rule="evenodd" d="M599.769 85.2752C599.769 83.5066 601.201 82.0726 603.015 82.0726C604.781 82.0726 606.213 83.5066 606.213 85.2752C606.213 87.0916 604.781 88.5256 603.015 88.5256C601.201 88.5256 599.769 87.0916 599.769 85.2752ZM600.724 85.2752C600.724 86.5658 601.726 87.5696 603.015 87.5696C604.256 87.5696 605.259 86.5658 605.259 85.2752C605.259 84.0324 604.256 83.0286 603.015 83.0286C601.726 83.0286 600.724 84.0324 600.724 85.2752Z" fill="#8BF6F1"/>
<path fill-rule="evenodd" clip-rule="evenodd" d="M538.432 101.193C538.432 95.5044 543.062 90.8678 548.742 90.8678C554.47 90.8678 559.101 95.5044 559.101 101.193C559.101 106.929 554.47 111.565 548.742 111.565C543.062 111.565 538.432 106.929 538.432 101.193ZM541.296 101.193C541.296 105.351 544.637 108.697 548.742 108.697C552.895 108.697 556.237 105.351 556.237 101.193C556.237 97.0818 552.895 93.7358 548.742 93.7358C544.637 93.7358 541.296 97.0818 541.296 101.193Z" fill="#8BF6F1"/>
<path d="M591.225 145.312V265.625H611.464V397.409H608.6V268.493H591.225V425.229H588.361V145.312H591.225Z" fill="url(#paint3_linear_0_1)"/>
<path d="M628.314 81.5469V143.735H647.121V255.3H644.257V146.603H628.314V290.242H625.45V81.5469H628.314Z" fill="url(#paint4_linear_0_1)"/>
<path d="M547.31 158.17V110.131H550.174V394.493H547.31V161.038H527.644V275.902H524.78V158.17H547.31Z" fill="url(#paint5_linear_0_1)"/>
<path d="M475.424 355.154H240.576V206.305C240.576 201.668 244.299 197.94 248.882 197.94H467.118C471.701 197.94 475.424 201.668 475.424 206.305V355.154Z" fill="#99A3B0"/>
<path d="M243.058 352.668V206.305C243.058 203.054 245.683 200.473 248.882 200.473H467.118C470.316 200.473 472.942 203.054 472.942 206.305V352.668H243.058Z" fill="#495375"/>
<path d="M252.223 343.491V209.651H463.777V343.491H252.223Z" fill="#8BF6F1"/>
<path d="M493.658 362.324H222.342V355.154H493.658V362.324Z" fill="#C7D2D7"/>
<path d="M480.866 369.494H235.134C229.884 369.494 225.063 366.817 222.342 362.324H493.658C490.937 366.817 486.116 369.494 480.866 369.494V369.494Z" fill="#99A3B0"/>
<path d="M375.805 358.739H340.195C338.191 358.739 336.615 357.162 336.615 355.154H379.385C379.385 357.162 377.809 358.739 375.805 358.739Z" fill="#AAB4BF"/>
<path d="M375.327 271.313H340.673V257.546H375.327V271.313Z" fill="#CAFFFB"/>
<path d="M377.571 265.099V295.595H338.429V266.533V265.099V262.422H352.558V265.099H377.571Z" fill="#7DD3E9"/>
<path d="M276.137 225.042H269.884V221.744H276.137V225.042Z" fill="white"/>
<path d="M311.746 225.042H282.343V221.744H311.746V225.042Z" fill="white"/>
<path d="M267.259 225.042H265.063V221.744H267.259V225.042Z" fill="white"/>
<path d="M276.137 234.268H269.884V230.922H276.137V234.268Z" fill="white"/>
<path d="M311.746 234.268H282.343V230.922H311.746V234.268Z" fill="white"/>
<path d="M267.259 234.268H265.063V230.922H267.259V234.268Z" fill="white"/>
<path d="M276.137 243.445H269.884V240.099H276.137V243.445Z" fill="white"/>
<path d="M311.746 243.445H282.343V240.099H311.746V243.445Z" fill="white"/>
<path d="M267.259 243.445H265.063V240.099H267.259V243.445Z" fill="white"/>
<path d="M276.137 252.623H269.884V249.277H276.137V252.623Z" fill="white"/>
<path d="M311.746 252.623H282.343V249.277H311.746V252.623Z" fill="white"/>
<path d="M267.259 252.623H265.063V249.277H267.259V252.623Z" fill="white"/>
<path d="M276.137 261.801H261.34V258.455H276.137V261.801Z" fill="white"/>
<path d="M320.1 261.801H282.343V258.455H320.1V261.801Z" fill="white"/>
<path d="M276.137 270.978H267.259V267.632H276.137V270.978Z" fill="white"/>
<path d="M324.109 270.978H282.343V267.632H324.109V270.978Z" fill="white"/>
<path d="M404.015 287.565H397.762V284.219H404.015V287.565Z" fill="white"/>
<path d="M439.624 287.565H410.268V284.219H439.624V287.565Z" fill="white"/>
<path d="M395.137 287.565H392.989V284.219H395.137V287.565Z" fill="white"/>
<path d="M404.015 296.742H397.762V293.396H404.015V296.742Z" fill="white"/>
<path d="M426.879 296.742H410.268V293.396H426.879V296.742Z" fill="white"/>
<path d="M395.137 296.742H392.989V293.396H395.137V296.742Z" fill="white"/>
<path d="M404.015 305.92H397.762V302.574H404.015V305.92Z" fill="white"/>
<path d="M446.545 305.92H410.268V302.574H446.545V305.92Z" fill="white"/>
<path d="M395.137 305.92H392.989V302.574H395.137V305.92Z" fill="white"/>
<path d="M404.015 315.098H397.762V311.752H404.015V315.098Z" fill="white"/>
<path d="M434.421 315.098H410.268V311.752H434.421V315.098Z" fill="white"/>
<path d="M395.137 315.098H392.989V311.752H395.137V315.098Z" fill="white"/>
<path d="M276.137 289.333H269.884V285.987H276.137V289.333Z" fill="white"/>
<path d="M311.746 289.333H282.343V285.987H311.746V289.333Z" fill="white"/>
<path d="M267.259 289.333H265.063V285.987H267.259V289.333Z" fill="white"/>
<path d="M276.137 298.511H260.481V295.165H276.137V298.511Z" fill="white"/>
<path d="M316.758 298.511H282.343V295.165H316.758V298.511Z" fill="white"/>
<path d="M276.137 316.866H269.884V313.52H276.137V316.866Z" fill="white"/>
<path d="M311.746 316.866H282.343V313.52H311.746V316.866Z" fill="white"/>
<path d="M267.259 316.866H265.063V313.52H267.259V316.866Z" fill="white"/>
<path d="M276.137 326.044H269.884V322.698H276.137V326.044Z" fill="white"/>
<path d="M311.746 326.044H282.343V322.698H311.746V326.044Z" fill="white"/>
<path d="M267.259 326.044H265.063V322.698H267.259V326.044Z" fill="white"/>
<path d="M276.137 335.221H269.884V331.875H276.137V335.221Z" fill="white"/>
<path d="M311.746 335.221H282.343V331.875H311.746V335.221Z" fill="white"/>
<path d="M267.259 335.221H265.063V331.875H267.259V335.221Z" fill="white"/>
<path d="M395.662 231.352H388.167V228.006H395.662V231.352Z" fill="white"/>
<path d="M440.34 231.352H400.865V228.006H440.34V231.352Z" fill="white"/>
<path d="M448.884 231.352H444.206V228.006H448.884V231.352Z" fill="white"/>
<path d="M395.662 240.721H388.167V237.375H395.662V240.721Z" fill="white"/>
<path d="M440.34 240.721H400.865V237.375H440.34V240.721Z" fill="white"/>
<path d="M448.884 240.721H444.206V237.375H448.884V240.721Z" fill="white"/>
<path d="M395.662 250.09H388.167V246.744H395.662V250.09Z" fill="white"/>
<path d="M427.786 250.09H400.865V246.744H427.786V250.09Z" fill="white"/>
<path d="M395.662 259.458H388.167V256.112H395.662V259.458Z" fill="white"/>
<path d="M420.626 259.458H400.865V256.112H420.626V259.458Z" fill="white"/>
<path d="M322.152 250.95H321.341V220.74H322.152V250.95Z" fill="white"/>
<path d="M350.076 274.324H349.265V247.604H340.53L332.415 239.478H326.544V238.618H332.749L340.864 246.744H350.076V274.324Z" fill="white"/>
<path d="M332.129 291.819H321.723V291.006H331.794L339.909 282.88H349.647V283.693H340.243L332.129 291.819Z" fill="white"/>
<path d="M338.286 324.801H320.911V323.988H337.952L357.905 303.96V289.047H358.764V304.295L338.286 324.801Z" fill="white"/>
<path d="M365.542 272.938H364.683V250.09L376.186 238.618H381.628V239.478H376.521L365.542 250.472V272.938Z" fill="white"/>
<path d="M388.167 303.1H379.241L367.594 291.437V283.311H368.406V291.102L379.575 302.287H388.167V303.1Z" fill="white"/>
<path d="M388.597 280.443H387.738V272.078H396.473V272.938H388.597V280.443Z" fill="white"/>
<path d="M451.748 327.095H434.421V326.283H450.937V312.086H451.748V327.095Z" fill="white"/>
<path d="M432.178 272.938H406.115V272.078H432.178V272.938Z" fill="white"/>
<path d="M446.545 272.938H440.531V272.078H446.545V272.938Z" fill="white"/>
<path d="M358 225.281V234.268L329.551 223.13C296.949 210.463 275.469 179.011 275.469 143.974V107.311C275.469 102.196 279.001 97.7988 283.966 96.6038L298.858 93.1144V81.4512C298.858 76.002 302.868 71.3654 308.31 70.6006L358 63.7174V72.1302L309.455 78.87C308.166 79.0612 307.212 80.1606 307.212 81.4512V99.7586L285.827 104.73C284.634 105.017 283.822 106.068 283.822 107.311V143.974C283.822 159.509 288.453 174.422 297.188 187.233C305.923 199.995 318.143 209.746 332.558 215.387L358 225.281Z" fill="#005B3E"/>
<path d="M440.531 107.311V143.974C440.531 179.011 419.051 210.463 386.449 223.13L358 234.268V225.281L383.442 215.387C397.857 209.746 410.077 199.995 418.812 187.233C427.547 174.422 432.178 159.509 432.178 143.974V107.311C432.178 106.068 431.366 105.017 430.173 104.73L408.788 99.7586V81.4512C408.788 80.1606 407.834 79.0612 406.545 78.87L358 72.1302V63.7174L407.69 70.6006C413.132 71.3654 417.142 76.002 417.142 81.4512V93.1144L432.034 96.6038C436.999 97.7988 440.531 102.196 440.531 107.311V107.311Z" fill="#005B3E"/>
<path d="M309.455 78.8701L358 72.1302V76.3845V220.788V225.281L332.558 215.387C318.143 209.746 305.923 199.995 297.188 187.233C288.453 174.422 283.822 159.509 283.822 143.974V107.311C283.822 106.068 284.634 105.017 285.827 104.73L307.212 99.7587V81.4512C307.212 80.1606 308.166 79.0613 309.455 78.8701V78.8701Z" fill="#22AC80"/>
<path d="M358 76.3845V72.1302L406.545 78.8701C407.834 79.0613 408.788 80.1606 408.788 81.4512V99.7587L430.173 104.73C431.366 105.017 432.178 106.068 432.178 107.311V143.974C432.178 159.509 427.547 174.422 418.812 187.233C410.077 199.995 397.857 209.746 383.442 215.387L358 225.281V220.788V76.3845Z" fill="#18946C"/>
<path d="M394.277 186.277H321.723V137.903H394.277V186.277Z" fill="#D6F7EE"/>
<path d="M394.277 186.277H321.723V137.903H394.277V186.277Z" fill="#D6F7EE"/>
<path d="M330.935 130.685H340.1V137.903H330.935V130.685Z" fill="#9DD3E4"/>
<path d="M383.824 130.685V137.903H374.659V130.685H383.824Z" fill="#9DD3E4"/>
<path d="M383.824 130.685H374.659V123.515C374.659 113.955 366.926 106.164 357.379 106.164C347.833 106.164 340.1 113.955 340.1 123.515V130.685H330.935V123.515C330.935 108.888 342.773 96.9862 357.379 96.9862C371.986 96.9862 383.824 108.888 383.824 123.515V130.685Z" fill="#D6F7EE"/>
<path d="M361.389 160.943L364.253 174.757H351.747L354.611 160.943C352.893 159.843 351.747 157.883 351.747 155.685C351.747 152.243 354.563 149.423 358 149.423C361.437 149.423 364.253 152.243 364.253 155.685C364.253 157.883 363.107 159.843 361.389 160.943Z" fill="#252735"/>
<path opacity="0.6" d="M565.21 231.591H425.161C422.392 231.591 420.197 229.344 420.197 226.572V179.871C420.197 177.099 422.392 174.852 425.161 174.852H565.21C567.931 174.852 570.175 177.099 570.175 179.871V226.572C570.175 229.344 567.931 231.591 565.21 231.591Z" fill="url(#paint6_linear_0_1)"/>
<g opacity="0.7">
<path d="M438.335 186.324H433.466V182.978H438.335V186.324Z" fill="white"/>
<path d="M480.913 186.324H442.106V182.978H480.913V186.324Z" fill="white"/>
<path d="M438.335 193.781H433.466V190.435H438.335V193.781Z" fill="white"/>
<path d="M480.913 193.781H442.106V190.435H480.913V193.781Z" fill="white"/>
<path d="M493.945 201.19H442.106V197.892H493.945V201.19Z" fill="white"/>
<path d="M556.905 189.049H505.496V183.217H556.905V189.049Z" fill="white"/>
<path d="M556.905 199.039H505.496V193.208H556.905V199.039Z" fill="white"/>
<path d="M442.106 212.853C442.106 215.243 440.197 217.155 437.81 217.155C435.424 217.155 433.466 215.243 433.466 212.853C433.466 210.463 435.424 208.504 437.81 208.504C440.197 208.504 442.106 210.463 442.106 212.853Z" fill="#8BF6F1"/>
<path d="M456.283 212.853C456.283 215.243 454.374 217.155 451.987 217.155C449.6 217.155 447.643 215.243 447.643 212.853C447.643 210.463 449.6 208.504 451.987 208.504C454.374 208.504 456.283 210.463 456.283 212.853Z" fill="#8BF6F1"/>
<path d="M470.46 212.853C470.46 215.243 468.55 217.155 466.164 217.155C463.777 217.155 461.82 215.243 461.82 212.853C461.82 210.463 463.777 208.504 466.164 208.504C468.55 208.504 470.46 210.463 470.46 212.853Z" fill="#8BF6F1"/>
<path d="M442.106 224.708H433.466V221.362H442.106V224.708Z" fill="white"/>
<path d="M456.283 224.708H447.643V221.362H456.283V224.708Z" fill="white"/>
<path d="M470.46 224.708H461.82V221.362H470.46V224.708Z" fill="white"/>
<path d="M484.637 224.708H475.997V221.362H484.637V224.708Z" fill="white"/>
<path d="M498.813 224.708H490.174V221.362H498.813V224.708Z" fill="white"/>
<path d="M545.64 211.706H524.923V208.36H545.64V211.706Z" fill="white"/>
<path d="M545.64 218.111H524.923V214.765H545.64V218.111Z" fill="white"/>
<path d="M545.64 224.517H524.923V221.171H545.64V224.517Z" fill="white"/>
</g>
<path opacity="0.6" d="M583.063 328.673H453.467C450.746 328.673 448.502 326.426 448.502 323.654V276.905C448.502 274.133 450.746 271.934 453.467 271.934H583.063C585.831 271.934 588.075 274.133 588.075 276.905V323.654C588.075 326.426 585.831 328.673 583.063 328.673Z" fill="url(#paint7_linear_0_1)"/>
<g opacity="0.7">
<path d="M491.797 317.105H474.994V316.245H490.937V300.28H491.797V317.105Z" fill="white"/>
<path d="M459.051 300.28H458.24V283.502H474.994V284.314H459.051V300.28Z" fill="white"/>
<path d="M483.873 309.17H466.164V291.437H483.873V309.17Z" fill="white"/>
<path d="M523.396 285.318H503.157V281.972H523.396V285.318Z" fill="white"/>
<path d="M545.783 291.723H503.157V288.377H545.783V291.723Z" fill="white"/>
<path d="M545.783 298.081H503.157V294.783H545.783V298.081Z" fill="white"/>
<path d="M534.947 304.486H503.157V301.14H534.947V304.486Z" fill="white"/>
<path d="M508.121 312.277H503.157V309.792H508.121V312.277Z" fill="white"/>
<path d="M531.177 312.277H511.892V309.792H531.177V312.277Z" fill="white"/>
<path d="M551.893 312.277H535.52V309.792H551.893V312.277Z" fill="white"/>
<path d="M508.121 318.205H503.157V315.719H508.121V318.205Z" fill="white"/>
<path d="M531.177 318.205H511.892V315.719H531.177V318.205Z" fill="white"/>
<path d="M545.783 318.205H535.52V315.719H545.783V318.205Z" fill="white"/>
<path d="M558.957 320.547H558.146V280.06H558.957V320.547Z" fill="white"/>
<path d="M565.688 284.314H563.062V282.641H565.688V284.314Z" fill="white"/>
<path d="M578.337 284.314H568.886V282.641H578.337V284.314Z" fill="white"/>
<path d="M565.688 288.043H563.062V286.37H565.688V288.043Z" fill="white"/>
<path d="M578.337 288.043H568.886V286.37H578.337V288.043Z" fill="white"/>
<path d="M565.688 291.771H563.062V290.098H565.688V291.771Z" fill="white"/>
<path d="M578.337 291.771H568.886V290.098H578.337V291.771Z" fill="white"/>
<path d="M565.688 299.276H563.062V297.603H565.688V299.276Z" fill="white"/>
<path d="M578.337 299.276H568.886V297.603H578.337V299.276Z" fill="white"/>
<path d="M565.688 303.004H563.062V301.331H565.688V303.004Z" fill="white"/>
<path d="M578.337 303.004H568.886V301.331H578.337V303.004Z" fill="white"/>
<path d="M565.688 306.733H563.062V305.06H565.688V306.733Z" fill="white"/>
<path d="M578.337 306.733H568.886V305.06H578.337V306.733Z" fill="white"/>
<path d="M565.688 314.189H563.062V312.516H565.688V314.189Z" fill="white"/>
<path d="M578.337 314.189H568.886V312.516H578.337V314.189Z" fill="white"/>
<path d="M565.688 317.966H563.062V316.293H565.688V317.966Z" fill="white"/>
<path d="M578.337 317.966H568.886V316.293H578.337V317.966Z" fill="white"/>
</g>
<path opacity="0.6" d="M148.307 252.623V190.34C148.307 187.28 150.79 184.747 153.892 184.747H268.357C271.46 184.747 273.942 187.28 273.942 190.34V252.623C273.942 255.682 271.46 258.216 268.357 258.216H153.892C150.79 258.216 148.307 255.682 148.307 252.623V252.623Z" fill="url(#paint8_linear_0_1)"/>
<g opacity="0.8">
<path d="M188.356 210.129C188.356 214.909 184.442 218.829 179.668 218.829C174.847 218.829 170.981 214.909 170.981 210.129C170.981 205.301 174.847 201.429 179.668 201.429C184.442 201.429 188.356 205.301 188.356 210.129Z" fill="white"/>
<path d="M192.556 241.247H166.733V234.364C166.733 227.241 172.508 221.458 179.668 221.458C186.781 221.458 192.556 227.241 192.556 234.364V241.247Z" fill="white"/>
<path d="M162.15 214.479H161.339V196.554H178.141V197.366H162.15V214.479Z" fill="white"/>
<path d="M197.664 246.887H180.814V246.075H196.805V228.962H197.664V246.887Z" fill="white"/>
<path d="M173.606 246.887H161.721V246.074H173.606V246.887Z" fill="white"/>
<path d="M197.664 201.429H196.805V197.366H185.301V196.554H197.664V201.429Z" fill="white"/>
<path d="M197.664 212.136H196.805V207.261H197.664V212.136Z" fill="white"/>
<path d="M234.227 200.282H206.399V196.984H234.227V200.282Z" fill="white"/>
<path d="M260.958 208.36H206.399V205.014H260.958V208.36Z" fill="white"/>
<path d="M246.686 215.052H206.399V211.706H246.686V215.052Z" fill="white"/>
<path d="M210.17 225.042H206.399V221.744H210.17V225.042Z" fill="#8BF6F1"/>
<path d="M232.509 225.042H214.227V221.744H232.509V225.042Z" fill="white"/>
<path d="M210.17 231.878H206.399V228.532H210.17V231.878Z" fill="#8BF6F1"/>
<path d="M240.146 231.878H214.227V228.532H240.146V231.878Z" fill="white"/>
<path d="M210.17 238.713H206.399V235.367H210.17V238.713Z" fill="#8BF6F1"/>
<path d="M253.894 238.713H214.227V235.367H253.894V238.713Z" fill="white"/>
<path d="M210.17 245.501H206.399V242.155H210.17V245.501Z" fill="#8BF6F1"/>
<path d="M245.922 245.501H214.227V242.155H245.922V245.501Z" fill="white"/>
</g>
<path opacity="0.6" d="M127.925 331.875V298.32C127.925 295.595 130.169 293.349 132.937 293.349H252.223C254.991 293.349 257.235 295.595 257.235 298.32V331.875C257.235 334.648 254.991 336.847 252.223 336.847H132.937C130.169 336.847 127.925 334.648 127.925 331.875Z" fill="url(#paint9_linear_0_1)"/>
<g opacity="0.8">
<path d="M153.797 317.918H137.997V302.048H153.797V317.918Z" fill="white"/>
<path d="M176.184 303.865H169.358V300.519H176.184V303.865Z" fill="white"/>
<path d="M201.053 303.865H181.864V300.519H201.053V303.865Z" fill="white"/>
<path d="M247.163 303.865H234.753V300.519H247.163V303.865Z" fill="#8BF6F1"/>
<path d="M247.163 310.27H234.753V306.924H247.163V310.27Z" fill="#8BF6F1"/>
<path d="M247.163 316.675H234.753V313.329H247.163V316.675Z" fill="#8BF6F1"/>
<path d="M247.163 323.08H234.753V319.734H247.163V323.08Z" fill="#8BF6F1"/>
<path d="M247.163 329.438H234.753V326.139H247.163V329.438Z" fill="#8BF6F1"/>
<path d="M212.604 310.27H169.358V306.924H212.604V310.27Z" fill="white"/>
<path d="M203.344 316.818H169.358V313.472H203.344V316.818Z" fill="white"/>
<path d="M215.898 323.319H169.358V320.021H215.898V323.319Z" fill="white"/>
<path d="M220.623 329.868H169.358V326.522H220.623V329.868Z" fill="white"/>
<path d="M163.534 330.68H162.723V299.706H163.534V330.68Z" fill="white"/>
<path d="M228.499 330.68H227.64V299.706H228.499V330.68Z" fill="white"/>
</g>
<defs>
<linearGradient id="paint0_linear_0_1" x1="102.627" y1="145.312" x2="102.627" y2="425.229" gradientUnits="userSpaceOnUse">
<stop stop-color="#18946C"/>
<stop offset="0.8" stop-color="#61C9D5" stop-opacity="0"/>
</linearGradient>
<linearGradient id="paint1_linear_0_1" x1="67.0882" y1="81.5469" x2="67.0882" y2="290.242" gradientUnits="userSpaceOnUse">
<stop stop-color="#18946C"/>
<stop offset="0.8" stop-color="#61C9D5" stop-opacity="0"/>
</linearGradient>
<linearGradient id="paint2_linear_0_1" x1="163.727" y1="110.131" x2="163.727" y2="394.493" gradientUnits="userSpaceOnUse">
<stop stop-color="#18946C"/>
<stop offset="0.8" stop-color="#61C9D5" stop-opacity="0"/>
</linearGradient>
<linearGradient id="paint3_linear_0_1" x1="586.452" y1="145.312" x2="586.452" y2="425.229" gradientUnits="userSpaceOnUse">
<stop stop-color="#18946C"/>
<stop offset="0.8" stop-color="#61C9D5" stop-opacity="0"/>
</linearGradient>
<linearGradient id="paint4_linear_0_1" x1="623.541" y1="81.5469" x2="623.541" y2="290.242" gradientUnits="userSpaceOnUse">
<stop stop-color="#18946C"/>
<stop offset="0.9" stop-color="#61C9D5" stop-opacity="0"/>
</linearGradient>
<linearGradient id="paint5_linear_0_1" x1="522.871" y1="110.131" x2="522.871" y2="394.493" gradientUnits="userSpaceOnUse">
<stop stop-color="#18946C"/>
<stop offset="0.9" stop-color="#61C9D5" stop-opacity="0"/>
</linearGradient>
<linearGradient id="paint6_linear_0_1" x1="420.197" y1="172.94" x2="570.175" y2="172.94" gradientUnits="userSpaceOnUse">
<stop stop-color="#696EB3"/>
<stop offset="1" stop-color="#BA709C"/>
</linearGradient>
<linearGradient id="paint7_linear_0_1" x1="448.502" y1="270.022" x2="588.075" y2="270.022" gradientUnits="userSpaceOnUse">
<stop stop-color="#696EB3"/>
<stop offset="1" stop-color="#BA709C"/>
</linearGradient>
<linearGradient id="paint8_linear_0_1" x1="273.942" y1="182.835" x2="148.307" y2="182.835" gradientUnits="userSpaceOnUse">
<stop stop-color="#BA709C"/>
<stop offset="1" stop-color="#696EB3"/>
</linearGradient>
<linearGradient id="paint9_linear_0_1" x1="257.235" y1="291.437" x2="127.925" y2="291.437" gradientUnits="userSpaceOnUse">
<stop stop-color="#BA709C"/>
<stop offset="1" stop-color="#696EB3"/>
</linearGradient>
</defs>
</svg>
