<svg width="166" height="171" viewBox="0 0 166 171" fill="none" xmlns="http://www.w3.org/2000/svg">
<path d="M82.5309 161.564V170.55L54.0819 159.413C21.48 146.746 0 115.294 0 80.2562V43.5936C0 38.479 3.53229 34.0814 8.49656 32.8864L23.3893 29.397V17.7338C23.3893 12.2846 27.399 7.648 32.8406 6.8832L82.5309 0V8.4128L33.9861 15.1526C32.6973 15.3438 31.7427 16.4432 31.7427 17.7338V36.0412L10.3581 41.0124C9.16481 41.2992 8.35333 42.3508 8.35333 43.5936V80.2562C8.35333 95.7912 12.9835 110.705 21.7187 123.515C30.4539 136.278 42.6736 146.029 57.0891 151.669L82.5309 161.564Z" fill="#005B3E"/>
<path d="M165.062 43.5936V80.2562C165.062 115.294 143.582 146.746 110.98 159.413L82.5309 170.55V161.564L107.973 151.669C122.388 146.029 134.608 136.278 143.343 123.515C152.078 110.705 156.709 95.7912 156.709 80.2562V43.5936C156.709 42.3508 155.897 41.2992 154.704 41.0124L133.319 36.0412V17.7338C133.319 16.4432 132.365 15.3438 131.076 15.1526L82.5309 8.4128V0L132.221 6.8832C137.663 7.648 141.673 12.2846 141.673 17.7338V29.397L156.565 32.8864C161.53 34.0814 165.062 38.479 165.062 43.5936V43.5936Z" fill="#005B3E"/>
<path d="M33.9861 15.1526L82.5309 8.41284V12.667V157.071V161.564L57.0891 151.669C42.6736 146.029 30.4539 136.278 21.7187 123.515C12.9835 110.705 8.35333 95.7913 8.35333 80.2563V43.5936C8.35333 42.3508 9.16481 41.2993 10.3581 41.0125L31.7427 36.0412V17.7338C31.7427 16.4432 32.6973 15.3438 33.9861 15.1526V15.1526Z" fill="#22AC80"/>
<path d="M82.5309 12.667V8.41284L131.076 15.1526C132.365 15.3438 133.319 16.4432 133.319 17.7338V36.0412L154.704 41.0125C155.897 41.2993 156.709 42.3508 156.709 43.5936V80.2563C156.709 95.7913 152.078 110.705 143.343 123.515C134.608 136.278 122.388 146.029 107.973 151.669L82.5309 161.564V157.071V12.667Z" fill="#18946C"/>
<path d="M118.808 122.559H46.2536V74.1855H118.808V122.559Z" fill="#D6F7EE"/>
<path d="M118.808 122.559H46.2536V74.1855H118.808V122.559Z" fill="#D6F7EE"/>
<path d="M55.4661 66.9678H64.6309V74.1856H55.4661V66.9678Z" fill="#9DD3E4"/>
<path d="M108.355 66.9678V74.1856H99.1899V66.9678H108.355Z" fill="#9DD3E4"/>
<path d="M108.355 66.9678H99.1899V59.7978C99.1899 50.2378 91.4571 42.4464 81.9104 42.4464C72.3637 42.4464 64.6309 50.2378 64.6309 59.7978V66.9678H55.4661V59.7978C55.4661 45.171 67.304 33.2688 81.9104 33.2688C96.5168 33.2688 108.355 45.171 108.355 59.7978V66.9678Z" fill="#D6F7EE"/>
<path d="M85.92 97.2251L88.784 111.039H76.2779L79.1419 97.2251C77.4235 96.1257 76.2779 94.1659 76.2779 91.9671C76.2779 88.5255 79.0941 85.7053 82.5309 85.7053C85.9677 85.7053 88.784 88.5255 88.784 91.9671C88.784 94.1659 87.6384 96.1257 85.92 97.2251Z" fill="#252735"/>
</svg>
